<?xml version="1.0" encoding="utf-8"?>
<!-- Generator: Adobe Illustrator 19.0.0, SVG Export Plug-In . SVG Version: 6.00 Build 0)  -->
<svg version="1.1" id="Layer_1" xmlns="http://www.w3.org/2000/svg" xmlns:xlink="http://www.w3.org/1999/xlink" x="0px" y="0px"
	 viewBox="-196 368.2 217.6 57.8" style="enable-background:new -196 368.2 217.6 57.8;" xml:space="preserve">
<style type="text/css">
	.st0{fill:#0D3273;}
</style>
<g>
	<g>
		<path class="st0" d="M-112.3,407.4c-2.1,0-4.5-0.8-5.7-3.1c-1.4,0.9-3,1.4-4.8,1.4c-6.2,0-9.7-5.4-9.7-12.6
			c0-7.2,3.5-12.6,9.7-12.6s9.7,5.4,9.7,12.6c0,4.1-1.2,7.7-3.3,9.9c1.1,1.8,2.1,2.3,4.2,2.3L-112.3,407.4L-112.3,407.4z
			 M-122.2,397.8c1.9,0.3,3.5,1.4,4.8,3.3c1.3-1.8,2-4.5,2-8c0-6.9-2.9-10.8-7.4-10.8s-7.4,3.9-7.4,10.8s2.9,10.8,7.4,10.8
			c1.5,0,2.8-0.4,3.9-1.2c-1.1-1.8-1.8-2.4-3.2-2.6v-2.3H-122.2z"/>
		<path class="st0" d="M-98.1,387.7v17.7h-2v-2.8c-1.9,2-3.5,3.1-6.1,3.1c-3.7,0-5.2-2.1-5.2-5.9v-12.1h2v11.9
			c0,2.9,0.9,4.5,3.6,4.5c2.2,0,3.4-1.3,5.6-3.4v-13H-98.1z"/>
		<path class="st0" d="M-94.4,396.6c0,4,1.7,7.5,5.7,7.5c2.3,0,3.4-0.8,5.2-3.6l1.7,0.9c-1.9,3.1-3.6,4.3-7,4.3
			c-4.6,0-7.5-3-7.5-9.2c0-5.5,2.8-9.2,7.3-9.2c4.8,0,7.1,3.8,7.1,9.2h-12.5V396.6z M-84.1,394.9c-0.4-3.6-2-5.9-5.1-6
			c-3.6,0-5.1,3.6-5.2,6H-84.1z"/>
		<path class="st0" d="M-78.4,396.6c0,4,1.7,7.5,5.7,7.5c2.3,0,3.4-0.8,5.2-3.6l1.7,0.9c-1.9,3.1-3.6,4.3-7,4.3
			c-4.6,0-7.5-3-7.5-9.2c0-5.5,2.8-9.2,7.3-9.2c4.8,0,7.1,3.8,7.1,9.2h-12.5V396.6z M-68.2,394.9c-0.4-3.6-2-5.9-5.1-6
			c-3.6,0-5.1,3.6-5.2,6H-68.2z"/>
		<path class="st0" d="M-64.3,405.3v-17.6h2v2.8c1.9-2,3.5-3.1,6.1-3.1c3.7,0,5.2,2.1,5.2,5.9v12.1h-2v-11.9c0-2.9-0.9-4.5-3.6-4.5
			c-2.2,0-3.4,1.3-5.6,3.4v13h-2.1V405.3z"/>
		<path class="st0" d="M-40.4,405.3v-24.5h3.9l6.8,20.8h0.1l6.8-20.8h3.9v24.5h-2.2v-22.7h-0.1l-7.4,22.7h-2.1l-7.4-22.7h-0.1v22.7
			H-40.4z"/>
		<path class="st0" d="M-5.8,405.3l-0.2-2.1c-2.1,1.7-3.7,2.5-6.4,2.5c-2.8,0-4.9-1.7-4.9-4.6c0-4.8,3.9-5.7,11.3-7.3v-1.2
			c0-2.3-1-3.5-4-3.5c-2.1,0-3.8,1.2-5.1,3.2l-1.4-0.8c1.5-2.9,3.7-4,6.6-4c4,0,5.9,1.6,5.9,5.5v9.2c0,0.9,0.1,2,0.3,3.2h-2.1V405.3
			z M-6.1,395.3c-8.1,1.8-9.2,3.4-9.2,5.7c0,1.9,1.3,3,3.2,3s4.3-1.1,6-2.9V395.3z"/>
		<path class="st0" d="M-2,405.3v-17.6h2v3.4h0.1c1-2.2,2.9-3.7,5.1-3.7h0.9v2H5.2c-2.2,0-5.2,2.7-5.2,6.1v10h-2V405.3z"/>
		<path class="st0" d="M14.4,402L14.4,402l5-14.4h2.2l-6.6,19c-1.2,3.5-2.4,5-5.6,5c-0.9,0-1.4-0.1-1.9-0.2v-1.7
			c0.6,0.1,1.3,0.2,2,0.2c1.4,0,3-1.3,4-4.9l-6.2-17.4h2.2L14.4,402z"/>
	</g>
	<g>
		<path class="st0" d="M-129.7,412.8v7.3c0,1,0.4,1.5,1.4,1.5c1,0,1.4-0.5,1.4-1.5v-7.3h2v7.3c0,2.3-1.4,3.3-3.4,3.3
			c-2.1,0-3.4-1-3.4-3.3v-7.3H-129.7z"/>
		<path class="st0" d="M-123.7,423.2v-7.9h1.8v0.9c0.7-0.6,1.3-1,2-1c1.1,0,1.7,0.6,1.7,2v6h-1.8v-5.8c0-0.5-0.2-0.9-0.7-0.9
			c-0.4,0-0.8,0.4-1.2,0.7v6H-123.7z"/>
		<path class="st0" d="M-117.1,414v-1.7h1.8v1.7H-117.1z M-115.2,415.3v7.9h-1.8v-7.9H-115.2z"/>
		<path class="st0" d="M-111.4,420.4L-111.4,420.4l1.2-5.1h1.8l-2,7.9h-1.8l-2.1-7.9h1.8L-111.4,420.4z"/>
		<path class="st0" d="M-106.3,419.7v1c0,0.8,0.5,1.1,1.1,1.1c0.8,0,1.1-0.5,1.1-1.1h1.8c-0.1,1.6-1.1,2.6-2.9,2.6
			c-1.7,0-2.9-1.1-2.9-2.8v-2.6c0-1.7,1.2-2.8,2.9-2.8c1.7,0,2.9,1.1,2.9,2.7v1.8h-4V419.7z M-104.1,418.2v-0.4
			c0-0.7-0.3-1.1-1.1-1.1c-0.7,0-1.1,0.4-1.1,1.1v0.4H-104.1z"/>
		<path class="st0" d="M-101.3,423.2v-7.9h1.8v1l0,0c0.4-0.8,1-1.2,1.9-1.2v2c-0.3-0.1-0.7-0.2-1-0.2c-0.6,0-0.9,0.5-0.9,0.9v5.4
			H-101.3z"/>
		<path class="st0" d="M-93.1,417.8c-0.2-0.7-0.7-1.1-1.3-1.1c-0.4,0-0.7,0.3-0.7,0.7c0,1.2,3.6,1.2,3.6,3.6c0,1.6-1.1,2.4-2.6,2.4
			c-1.1,0-2.1-0.3-3-2.3l1.6-0.4c0.2,0.7,0.6,1.2,1.3,1.2c0.6,0,0.9-0.3,0.9-0.7c0-1.5-3.6-1.1-3.6-3.8c0-1.5,1.2-2.2,2.5-2.2
			c1.4,0,2.3,0.8,2.8,2L-93.1,417.8z"/>
		<path class="st0" d="M-90.8,414v-1.7h1.8v1.7H-90.8z M-89,415.3v7.9h-1.8v-7.9H-89z"/>
		<path class="st0" d="M-88.1,417.2v-1.5h0.7v-2.1h1.8v2.1h1.2v1.5h-1.2v4c0,0.4,0.3,0.6,0.8,0.6c0.1,0,0.2,0,0.4,0v1.5
			c-0.3,0.1-0.7,0.1-1,0.1c-1.2,0-2-0.4-2-1.6v-4.6H-88.1z"/>
		<path class="st0" d="M-83.4,424.4c0.2,0,0.3,0,0.5,0c0.8,0,1.3-0.7,1.3-1c0-0.5-0.1-1-0.3-1.7l-1.8-6.4h1.9l1.2,5.2l0,0l1.1-5.2
			h1.9l-2.1,7.9c-0.6,2.1-1.3,2.8-3.1,2.8c-0.2,0-0.4,0-0.6,0V424.4z"/>
		<path class="st0" d="M-73.9,418.2c0-2.1,1.1-3,2.9-3s2.9,0.9,2.9,3v2.2c0,2.1-1.1,3-2.9,3s-2.9-0.9-2.9-3V418.2z M-72.1,420.9
			c0,0.6,0.4,0.9,1.1,0.9s1.1-0.3,1.1-0.9v-3.1c0-0.6-0.4-0.9-1.1-0.9s-1.1,0.3-1.1,0.9V420.9z"/>
		<path class="st0" d="M-63.8,414.2h-0.5c-0.4,0-0.6,0.3-0.6,0.7v0.8h1.1v1.5h-1.1v6h-1.8v-6h-0.8v-1.5h0.8v-0.8
			c0-1.8,0.8-2.3,2.1-2.3c0.3,0,0.6,0,0.9,0.1L-63.8,414.2L-63.8,414.2z"/>
		<path class="st0" d="M-59.5,423.2v-10.4h2v8.7h3.2v1.7H-59.5z"/>
		<path class="st0" d="M-53.5,418.2c0-2.1,1.1-3,2.9-3c1.8,0,2.9,0.9,2.9,3v2.2c0,2.1-1.1,3-2.9,3c-1.8,0-2.9-0.9-2.9-3V418.2z
			 M-51.7,420.9c0,0.6,0.4,0.9,1.1,0.9c0.6,0,1.1-0.3,1.1-0.9v-3.1c0-0.6-0.4-0.9-1.1-0.9c-0.6,0-1.1,0.3-1.1,0.9V420.9z"/>
		<path class="st0" d="M-46.6,423.2v-7.9h1.8v0.9c0.7-0.6,1.3-1,2-1c1.1,0,1.7,0.6,1.7,2v6h-1.8v-5.8c0-0.5-0.2-0.9-0.7-0.9
			c-0.4,0-0.8,0.4-1.2,0.7v6H-46.6z"/>
		<path class="st0" d="M-36.1,423.2v-1l0,0c-0.3,0.5-1.1,1.1-1.9,1.1c-1.4,0-2-1.1-2-3.1v-1.9c0-2,0.6-3.1,2-3.1
			c0.5,0,1,0.2,1.8,0.9v-3.3h1.8v10.4H-36.1z M-36.2,417.1c-0.4-0.4-0.7-0.6-1.1-0.6c-0.5,0-0.9,0.3-0.9,1.9v1.7
			c0,1.6,0.4,1.9,0.9,1.9c0.4,0,0.7-0.2,1.1-0.6V417.1z"/>
		<path class="st0" d="M-33.5,418.2c0-2.1,1.1-3,2.9-3c1.8,0,2.9,0.9,2.9,3v2.2c0,2.1-1.1,3-2.9,3c-1.8,0-2.9-0.9-2.9-3V418.2z
			 M-31.7,420.9c0,0.6,0.4,0.9,1.1,0.9c0.6,0,1.1-0.3,1.1-0.9v-3.1c0-0.6-0.4-0.9-1.1-0.9c-0.6,0-1.1,0.3-1.1,0.9V420.9z"/>
		<path class="st0" d="M-26.5,423.2v-7.9h1.8v0.9c0.7-0.6,1.3-1,2-1c1.1,0,1.7,0.6,1.7,2v6h-1.8v-5.8c0-0.5-0.2-0.9-0.7-0.9
			c-0.4,0-0.8,0.4-1.2,0.7v6H-26.5z"/>
	</g>
	<g>
		<g>
			<path class="st0" d="M-170,380.8c-6.9,0-12.5,5.5-12.5,12.3c0,6.8,5.6,12.3,12.5,12.3s12.5-5.5,12.5-12.3
				C-157.6,386.3-163.1,380.8-170,380.8z M-169.9,404.5c-5.1,0-9.2-5.1-9.2-11.4c0-6.3,4.1-11.4,9.2-11.4c5.1,0,9.2,5.1,9.2,11.4
				C-160.7,399.4-164.8,404.5-169.9,404.5z"/>
		</g>
	</g>
	<path class="st0" d="M-196,381.7c0,0,9,6.4,4.9,14.1c0,0,6.1-8.3,8.1,3.4c0,0-1.7-2.6-5.1-2c-2.9,0.6-3.3,2.9-3.3,2.9L-196,381.7z"
		/>
	<path class="st0" d="M-144.4,381.7c0,0-9,6.4-4.9,14.1c0,0-6.1-8.3-8.1,3.4c0,0,1.7-2.6,5.1-2c2.9,0.6,3.3,2.9,3.3,2.9
		L-144.4,381.7z"/>
	<g>
		<path class="st0" d="M-181.6,406.1c1.3-0.5,2.6-0.9,4.2-1.5c-0.6-0.4-1.5-1.1-2.1-1.6c-1.6,0.6-3.1,1.1-4,1.5c-0.9,0.3-4,1-5.1-2
			c-0.8-2.2,0.7-3.6,2.3-3.6c0.6,0,1.1,0.2,1.1,0.3c-0.8,0-1.4,0.6-1.4,1.4c0,0.8,0.6,1.4,1.4,1.4s1.4-0.6,1.4-1.4
			c0-0.6-0.3-1.1-0.8-1.4c-0.6-0.4-1.5-0.7-2.3-0.7c-1.8,0-3.4,1.6-3.7,3.5C-190.9,404.1-188.6,408.6-181.6,406.1z"/>
	</g>
	<path class="st0" d="M-188.8,409.7c-0.3-1,0.8-1.8,2.4-1.8h33.2c1.6,0,2.6,0.8,2.4,1.8c-0.3,1-1.8,1.7-3.4,1.6l-12.8-0.9
		c-1.6-0.1-4.1-0.1-5.7,0l-12.8,0.8C-187.1,411.3-188.6,410.6-188.8,409.7z"/>
	<path class="st0" d="M-168,379.6c-1.3-1.9-0.5-3.1,0.4-3.1c1.4,0,2,0.8,2,2.1c0.8-0.4,1.5-1.6,1.5-2.7c0-1.1-0.9-2.1-2-2.1
		c-1.3,0-2,0.4-2.7,1.1c0.1-0.2,0.2-0.4,0.3-0.6c0.3-0.5,0.5-1.1,0.5-1.6c0-0.6-0.3-1.2-0.7-1.9c-0.3-0.7-0.9-1.7-1.2-2.6
		c-0.3,0.9-0.9,1.9-1.2,2.6c-0.4,0.7-0.7,1.4-0.7,2c0,0.5,0.3,1,0.5,1.5c0.1,0.2,0.2,0.4,0.3,0.7c-0.6-0.7-1.3-1.2-2.7-1.1
		c-1.1,0-2,1-2,2.1c0,1.1,0.7,2.3,1.5,2.7c0-1.3,0.5-2.1,2-2.1c0.9,0,1.7,1.1,0.3,3.1C-170.4,379.2-169.5,379.3-168,379.6z"/>
	<path class="st0" d="M-149.7,402.2c-0.3-1.9-1.9-3.5-3.7-3.5c-0.8,0-1.7,0.3-2.3,0.7c-0.5,0.4-0.8,0.8-0.8,1.4
		c0,0.8,0.6,1.4,1.4,1.4c0.8,0,1.4-0.6,1.4-1.4c0-0.8-0.6-1.4-1.4-1.4c0-0.1,0.6-0.3,1.1-0.3c1.5,0,3.1,1.4,2.3,3.6
		c-1.1,3-4.2,2.3-5.1,2c-0.9-0.3-5.1-1.9-6.7-2.5c0,0-0.1,0-0.1,0.1c-3.8-1.4-4.4-1.6-6.2-2c-5.8-1.2-6.3,2.7-6.3,2.7
		c0,0.1,0.5-1.7,4.4-1.3c1.6,0.2,2.5,0.6,6.2,2.1l0,0c1.6,0.6,5.5,2,6.9,2.5C-151.8,408.7-149.4,404.3-149.7,402.2z"/>
</g>
</svg>
