<?xml version="1.0" encoding="UTF-8" standalone="no"?>
<svg
   xmlns:dc="http://purl.org/dc/elements/1.1/"
   xmlns:cc="http://creativecommons.org/ns#"
   xmlns:rdf="http://www.w3.org/1999/02/22-rdf-syntax-ns#"
   xmlns:svg="http://www.w3.org/2000/svg"
   xmlns="http://www.w3.org/2000/svg"
   viewBox="0 0 495.65732 156.00533"
   height="156.00533"
   width="495.65732"
   xml:space="preserve"
   id="svg2"
   version="1.1"><metadata
     id="metadata8"><rdf:RDF><cc:Work
         rdf:about=""><dc:format>image/svg+xml</dc:format><dc:type
           rdf:resource="http://purl.org/dc/dcmitype/StillImage" /></cc:Work></rdf:RDF></metadata><defs
     id="defs6"><clipPath
       id="clipPath18"
       clipPathUnits="userSpaceOnUse"><path
         id="path16"
         d="M 0,117.004 H 371.743 V 0 H 0 Z" /></clipPath></defs><g
     transform="matrix(1.3333333,0,0,-1.3333333,0,156.00533)"
     id="g10"><g
       id="g12"><g
         clip-path="url(#clipPath18)"
         id="g14"><g
           transform="translate(49.5034,67.1828)"
           id="g20"><path
             id="path22"
             style="fill:#0c1d3c;fill-opacity:1;fill-rule:nonzero;stroke:none"
             d="m 0,0 2.639,-19.144 8.673,14.493 -3.68,-15.941 9.35,8.946 -4.869,-11.81 7.78,5.806 C 16.271,-27.505 13.116,-33.03 0,-37.52 c -13.116,4.49 -16.271,10.015 -19.892,19.87 l 7.779,-5.806 -4.869,11.81 9.35,-8.946 -3.68,15.941 8.673,-14.493 z" /></g><g
           transform="translate(35.7637,73.5969)"
           id="g24"><path
             id="path26"
             style="fill:#0c1d3c;fill-opacity:1;fill-rule:nonzero;stroke:none"
             d="m 0,0 c -3.974,0 -6.347,2.127 -6.347,5.7 v 8.554 h 3.295 V 5.835 c 0,-2.076 1.091,-3.218 3.077,-3.218 2.038,0 3.118,1.094 3.118,3.159 v 8.478 H 6.459 V 5.757 C 6.459,2.205 3.984,0 0,0" /></g><g
           transform="translate(49.627,73.8337)"
           id="g28"><path
             id="path30"
             style="fill:#0c1d3c;fill-opacity:1;fill-rule:nonzero;stroke:none"
             d="m 0,0 h -4.601 v 14.017 h 4.669 c 3.414,0 5.295,-1.325 5.295,-3.723 C 5.363,9.033 4.705,8.062 3.449,7.467 5.133,6.873 5.988,5.76 5.988,4.153 5.988,1.473 3.863,0 0,0 M -1.418,2.341 H 0 c 1.282,0 2.805,0.327 2.805,1.89 0,1.61 -1.549,1.953 -2.852,1.953 h -1.371 z m 0,6.045 h 1.197 c 1.604,0 2.491,0.602 2.491,1.692 0,1.073 -0.773,1.596 -2.36,1.596 h -1.328 z" /></g><g
           transform="translate(64.8438,73.5969)"
           id="g32"><path
             id="path34"
             style="fill:#0c1d3c;fill-opacity:1;fill-rule:nonzero;stroke:none"
             d="m 0,0 c -4.537,0 -7.467,2.833 -7.467,7.227 0,4.341 3.037,7.261 7.556,7.261 1.676,0 3.087,-0.33 4.311,-1.009 l 0.108,-0.06 -0.492,-2.855 -0.217,0.145 c -1.203,0.808 -2.348,1.181 -3.598,1.181 -2.695,0 -4.306,-1.738 -4.306,-4.646 0,-2.854 1.666,-4.627 4.351,-4.627 1.272,0 2.524,0.382 3.826,1.166 L 4.287,3.912 4.751,1.25 4.648,1.189 C 3.311,0.424 1.66,0 0,0" /></g><g
           transform="translate(49.5034,26.6931)"
           id="g36"><path
             id="path38"
             style="fill:#0c1d3c;fill-opacity:1;fill-rule:nonzero;stroke:none"
             d="m 0,0 c -15.484,4.387 -22.875,14.61 -22.875,29.184 v 34.498 h 45.75 V 29.184 C 22.875,14.61 15.484,4.387 0,0 M -24.75,65.557 V 28.949 C -24.75,13.564 -16.379,2.426 0,-1.943 16.379,2.426 24.75,13.564 24.75,28.949 v 36.608 z" /></g><g
           transform="translate(49.5044,68.8693)"
           id="g40"><path
             id="path42"
             style="fill:#0c1d3c;fill-opacity:1;fill-rule:nonzero;stroke:none"
             d="M 0,0 C 3.451,0 3.918,-1.4 6.697,-1.383 9.467,-1.4 9.941,0 13.393,0 c 3.45,0 3.925,-1.4 6.697,-1.383 V 1.831 C 17.318,1.812 16.843,3.195 13.393,3.195 9.941,3.195 9.467,1.812 6.697,1.831 3.918,1.812 3.451,3.195 0,3.195 c -3.451,0 -3.918,-1.383 -6.697,-1.364 -2.77,-0.019 -3.245,1.364 -6.696,1.364 -3.451,0 -3.927,-1.383 -6.697,-1.364 V -1.383 C -17.32,-1.4 -16.844,0 -13.393,0 -9.942,0 -9.467,-1.4 -6.697,-1.383 -3.918,-1.4 -3.451,0 0,0" /></g><g
           transform="translate(51.6909,63.0612)"
           id="g44"><path
             id="path46"
             style="fill:#0c1d3c;fill-opacity:1;fill-rule:nonzero;stroke:none"
             d="m 0,0 c 1.665,-0.398 2.457,-1.159 4.511,-1.146 2.769,-0.017 3.244,1.383 6.695,1.383 3.451,0 3.926,-1.4 6.697,-1.383 V 2.068 C 15.132,2.049 14.657,3.432 11.206,3.432 7.755,3.432 7.28,2.049 4.511,2.068 2.279,2.053 1.537,2.941 -0.454,3.292 Z" /></g><g
           transform="translate(42.8071,61.9152)"
           id="g48"><path
             id="path50"
             style="fill:#0c1d3c;fill-opacity:1;fill-rule:nonzero;stroke:none"
             d="M 0,0 C 2.053,-0.013 2.845,0.747 4.509,1.146 L 4.963,4.437 C 2.973,4.086 2.23,3.199 0,3.214 -2.77,3.195 -3.245,4.578 -6.695,4.578 c -3.452,0 -3.928,-1.383 -6.698,-1.364 V 0 c 2.77,-0.017 3.246,1.383 6.698,1.383 3.45,0 3.925,-1.4 6.695,-1.383" /></g><g
           transform="translate(52.4912,57.256)"
           id="g52"><path
             id="path54"
             style="fill:#0c1d3c;fill-opacity:1;fill-rule:nonzero;stroke:none"
             d="M 0,0 C 0.941,-0.324 1.665,-0.719 2.783,-0.859 L 4.712,2.364 C 4.411,2.323 4.082,2.3 3.71,2.302 1.801,2.29 0.983,2.938 -0.461,3.345 Z" /></g><g
           transform="translate(61.3262,57.612)"
           id="g56"><path
             id="path58"
             style="fill:#0c1d3c;fill-opacity:1;fill-rule:nonzero;stroke:none"
             d="m 0,0 c 0.451,0.071 0.964,0.115 1.571,0.115 3.45,0 3.926,-1.4 6.697,-1.383 V 1.946 C 5.497,1.928 5.021,3.311 1.571,3.311 1.279,3.311 1.01,3.3 0.758,3.282 Z" /></g><g
           transform="translate(37.6812,57.612)"
           id="g60"><path
             id="path62"
             style="fill:#0c1d3c;fill-opacity:1;fill-rule:nonzero;stroke:none"
             d="m 0,0 -0.758,3.282 c -0.252,0.018 -0.52,0.029 -0.811,0.029 -3.452,0 -3.928,-1.383 -6.698,-1.365 v -3.214 c 2.77,-0.017 3.246,1.383 6.698,1.383 C -0.964,0.115 -0.451,0.071 0,0" /></g><g
           transform="translate(43.7329,56.3967)"
           id="g64"><path
             id="path66"
             style="fill:#0c1d3c;fill-opacity:1;fill-rule:nonzero;stroke:none"
             d="M 0,0 C 1.118,0.14 1.842,0.535 2.783,0.859 L 3.244,4.204 C 1.801,3.797 0.983,3.149 -0.926,3.162 -1.298,3.159 -1.627,3.183 -1.929,3.224 Z" /></g><g
           transform="translate(104.1885,73.8337)"
           id="g68"><path
             id="path70"
             style="fill:#0c1d3c;fill-opacity:1;fill-rule:nonzero;stroke:none"
             d="m 0,0 h -2.423 v 10.215 h -3.805 v 2.16 h 9.893 l 0.323,-2.16 H 0 Z" /></g><g
           transform="translate(122.9077,73.8337)"
           id="g72"><path
             id="path74"
             style="fill:#0c1d3c;fill-opacity:1;fill-rule:nonzero;stroke:none"
             d="M 0,0 H -2.423 V 5.335 H -7.752 V 0 h -2.398 v 12.375 h 2.398 V 7.542 h 5.329 v 4.833 H 0 Z" /></g><g
           transform="translate(137.7676,73.8337)"
           id="g76"><path
             id="path78"
             style="fill:#0c1d3c;fill-opacity:1;fill-rule:nonzero;stroke:none"
             d="m 0,0 h -7.953 v 12.375 h 7.785 V 10.237 H -5.553 V 7.498 h 4.288 L -0.913,5.36 h -4.64 V 2.138 l 5.553,0 z" /></g><g
           transform="translate(156.4185,73.5969)"
           id="g80"><path
             id="path82"
             style="fill:#0c1d3c;fill-opacity:1;fill-rule:nonzero;stroke:none"
             d="m 0,0 c -3.163,0 -5.049,1.896 -5.049,5.075 v 7.536 h 2.398 V 5.17 c 0,-1.988 0.948,-3.082 2.672,-3.082 1.768,0 2.701,1.045 2.701,3.032 v 7.491 H 5.143 V 5.17 C 5.143,1.931 3.219,0 0,0" /></g><g
           transform="translate(178.2617,73.8337)"
           id="g84"><path
             id="path86"
             style="fill:#0c1d3c;fill-opacity:1;fill-rule:nonzero;stroke:none"
             d="M 0,0 H -2.08 L -7.967,8.672 V 0 h -2.206 v 12.375 h 2.345 l 5.619,-8.308 v 8.308 H 0 Z" /></g><path
           id="path88"
           style="fill:#0c1d3c;fill-opacity:1;fill-rule:nonzero;stroke:none"
           d="m 187.562,73.834 h -2.423 v 12.375 h 2.423 z" /><g
           transform="translate(199.2871,73.6447)"
           id="g90"><path
             id="path92"
             style="fill:#0c1d3c;fill-opacity:1;fill-rule:nonzero;stroke:none"
             d="m 0,0 h -2.176 l -4.774,12.267 2.424,0.528 3.531,-9.659 3.457,9.427 h 2.441 z" /></g><g
           transform="translate(216.707,73.8337)"
           id="g94"><path
             id="path96"
             style="fill:#0c1d3c;fill-opacity:1;fill-rule:nonzero;stroke:none"
             d="m 0,0 h -7.953 v 12.375 h 7.785 V 10.237 H -5.551 V 7.498 h 4.286 L -0.911,5.36 h -4.64 V 2.138 l 5.551,0 z" /></g><g
           transform="translate(225.1826,80.4465)"
           id="g98"><path
             id="path100"
             style="fill:#0c1d3c;fill-opacity:1;fill-rule:nonzero;stroke:none"
             d="m 0,0 h 1.461 c 1.493,0 2.316,0.664 2.316,1.885 0,1.46 -1.26,1.765 -2.316,1.765 H 0 Z M 4.661,-6.77 1.136,-1.925 H 0 V -6.613 H -2.402 V 5.762 h 3.884 c 2.939,0 4.695,-1.439 4.695,-3.856 0,-1.687 -0.851,-2.89 -2.462,-3.499 l 3.433,-4.615 z" /></g><g
           transform="translate(241.1465,73.6701)"
           id="g102"><path
             id="path104"
             style="fill:#0c1d3c;fill-opacity:1;fill-rule:nonzero;stroke:none"
             d="M 0,0 C -1.311,0 -2.812,0.324 -4.206,0.917 L -4.3,0.954 -3.941,3.157 -3.795,3.079 c 1.239,-0.648 2.765,-1.064 3.893,-1.064 1.362,0 2.244,0.602 2.244,1.525 0,0.921 -0.576,1.277 -2.311,1.871 -2.594,0.906 -3.91,1.724 -3.91,3.682 0,2.126 1.723,3.615 4.188,3.615 1.253,0 2.52,-0.262 3.566,-0.729 L 3.961,11.938 3.61,9.691 3.458,9.77 c -1.155,0.602 -2.209,0.894 -3.218,0.894 -1.079,0 -1.89,-0.561 -1.89,-1.309 0,-0.825 0.561,-1.14 2.477,-1.799 C 3.255,6.709 4.573,5.861 4.573,3.804 4.573,1.532 2.735,0 0,0" /></g><path
           id="path106"
           style="fill:#0c1d3c;fill-opacity:1;fill-rule:nonzero;stroke:none"
           d="m 254.132,73.834 h -2.424 v 12.375 h 2.424 z" /><g
           transform="translate(265.0283,73.8337)"
           id="g108"><path
             id="path110"
             style="fill:#0c1d3c;fill-opacity:1;fill-rule:nonzero;stroke:none"
             d="m 0,0 h -2.419 v 10.215 h -3.803 v 2.16 h 9.891 l 0.323,-2.16 H 0 Z" /></g><g
           transform="translate(277.9717,73.8337)"
           id="g112"><path
             id="path114"
             style="fill:#0c1d3c;fill-opacity:1;fill-rule:nonzero;stroke:none"
             d="m 0,0 h -2.423 v 4.778 l -4.426,7.298 2.459,0.527 3.211,-5.629 3.113,5.401 H 4.593 L 0,4.803 Z" /></g><g
           transform="translate(103.9204,59.6096)"
           id="g116"><path
             id="path118"
             style="fill:#0c1d3c;fill-opacity:1;fill-rule:nonzero;stroke:none"
             d="M 0,0 C -2.1,0 -3.516,-1.739 -3.516,-4.325 -3.516,-6.86 -2.037,-8.7 0,-8.7 c 2.085,0 3.49,1.749 3.49,4.349 C 3.49,-1.832 2.021,0 0,0 m 0,-10.763 c -2.966,0 -5.961,2.203 -5.961,6.412 0,4.227 2.995,6.435 5.961,6.435 2.95,0 5.931,-2.198 5.931,-6.409 0,-4.226 -2.981,-6.438 -5.931,-6.438" /></g><g
           transform="translate(117.8164,49.0837)"
           id="g120"><path
             id="path122"
             style="fill:#0c1d3c;fill-opacity:1;fill-rule:nonzero;stroke:none"
             d="M 0,0 H -2.394 V 12.375 H 5.194 V 10.237 H 0 V 7.306 H 4.076 L 4.427,5.169 H 0 Z" /></g><g
           transform="translate(138.4106,56.5305)"
           id="g124"><path
             id="path126"
             style="fill:#0c1d3c;fill-opacity:1;fill-rule:nonzero;stroke:none"
             d="m 0,0 h 1.576 c 1.38,0 2.074,0.513 2.074,1.527 0,0.582 -0.209,1.36 -2.004,1.36 H 0 Z m 0,-5.43 h 1.789 c 1.608,0 2.388,0.547 2.388,1.673 0,1.187 -0.792,1.791 -2.363,1.791 L 0,-1.966 Z M 1.768,-7.447 H -2.305 V 4.928 h 4.047 c 2.607,0 4.162,-1.2 4.162,-3.208 0,-1.186 -0.515,-2.062 -1.54,-2.609 1.388,-0.504 2.096,-1.468 2.096,-2.868 0,-2.376 -1.67,-3.69 -4.692,-3.69" /></g><g
           transform="translate(153.124,55.6965)"
           id="g128"><path
             id="path130"
             style="fill:#0c1d3c;fill-opacity:1;fill-rule:nonzero;stroke:none"
             d="M 0,0 H 1.456 C 2.946,0 3.77,0.664 3.77,1.885 3.77,3.345 2.513,3.65 1.456,3.65 H 0 Z M 4.651,-6.77 1.126,-1.925 H 0 V -6.613 H -2.402 V 5.762 h 3.881 c 2.938,0 4.69,-1.439 4.69,-3.856 0,-1.687 -0.85,-2.89 -2.458,-3.499 l 3.432,-4.615 z" /></g><path
           id="path132"
           style="fill:#0c1d3c;fill-opacity:1;fill-rule:nonzero;stroke:none"
           d="m 167.992,49.084 h -2.427 v 12.375 h 2.427 z" /><g
           transform="translate(178.9062,49.0837)"
           id="g134"><path
             id="path136"
             style="fill:#0c1d3c;fill-opacity:1;fill-rule:nonzero;stroke:none"
             d="m 0,0 h -2.419 v 10.215 h -3.805 v 2.16 H 3.668 L 3.99,10.215 H 0 Z" /></g><path
           id="path138"
           style="fill:#0c1d3c;fill-opacity:1;fill-rule:nonzero;stroke:none"
           d="m 189.747,49.084 h -2.424 v 12.375 h 2.424 z" /><g
           transform="translate(199.7402,48.9201)"
           id="g140"><path
             id="path142"
             style="fill:#0c1d3c;fill-opacity:1;fill-rule:nonzero;stroke:none"
             d="m 0,0 c -1.314,0 -2.81,0.324 -4.21,0.917 l -0.09,0.037 0.352,2.203 0.149,-0.078 c 1.245,-0.648 2.774,-1.064 3.893,-1.064 1.362,0 2.246,0.602 2.246,1.525 0,0.921 -0.577,1.277 -2.313,1.871 -2.589,0.906 -3.91,1.724 -3.91,3.682 0,2.126 1.728,3.615 4.195,3.615 1.25,0 2.513,-0.262 3.561,-0.729 L 3.961,11.938 3.61,9.691 3.46,9.77 c -1.155,0.602 -2.211,0.894 -3.224,0.894 -1.073,0 -1.886,-0.561 -1.886,-1.309 0,-0.825 0.558,-1.14 2.478,-1.799 C 3.253,6.709 4.568,5.861 4.568,3.804 4.568,1.532 2.732,0 0,0" /></g><g
           transform="translate(219.7285,49.0837)"
           id="g144"><path
             id="path146"
             style="fill:#0c1d3c;fill-opacity:1;fill-rule:nonzero;stroke:none"
             d="M 0,0 H -2.424 V 5.335 H -7.748 V 0 h -2.398 v 12.375 h 2.398 V 7.542 h 5.324 v 4.833 H 0 Z" /></g><g
           transform="translate(238.3105,48.8469)"
           id="g148"><path
             id="path150"
             style="fill:#0c1d3c;fill-opacity:1;fill-rule:nonzero;stroke:none"
             d="m 0,0 c -3.563,0 -5.959,2.566 -5.959,6.39 0,3.862 2.396,6.457 5.959,6.457 1.413,0 2.548,-0.298 3.562,-0.949 L 3.629,11.853 3.247,9.59 3.083,9.71 c -0.978,0.735 -1.93,1.078 -3.009,1.078 -2.228,0 -3.56,-1.641 -3.56,-4.376 0,-2.697 1.377,-4.372 3.607,-4.372 1.067,0 2.18,0.381 3.206,1.101 L 3.487,3.253 3.818,1.139 3.75,1.099 C 2.677,0.391 1.349,0 0,0" /></g><g
           transform="translate(252.5342,59.6096)"
           id="g152"><path
             id="path154"
             style="fill:#0c1d3c;fill-opacity:1;fill-rule:nonzero;stroke:none"
             d="M 0,0 C -2.104,0 -3.516,-1.739 -3.516,-4.325 -3.516,-6.86 -2.037,-8.7 0,-8.7 c 2.082,0 3.487,1.749 3.487,4.349 C 3.487,-1.832 2.02,0 0,0 m 0,-10.763 c -2.966,0 -5.96,2.203 -5.96,6.412 0,4.227 2.994,6.435 5.96,6.435 2.944,0 5.932,-2.198 5.932,-6.409 0,-4.226 -2.988,-6.438 -5.932,-6.438" /></g><g
           transform="translate(271.0859,49.0837)"
           id="g156"><path
             id="path158"
             style="fill:#0c1d3c;fill-opacity:1;fill-rule:nonzero;stroke:none"
             d="m 0,0 h -7.32 v 12.375 h 2.399 V 2.115 h 4.577 z" /></g><g
           transform="translate(280.4004,48.8469)"
           id="g160"><path
             id="path162"
             style="fill:#0c1d3c;fill-opacity:1;fill-rule:nonzero;stroke:none"
             d="m 0,0 c -3.16,0 -5.049,1.896 -5.049,5.075 v 7.536 h 2.4 V 5.17 c 0,-1.988 0.946,-3.082 2.674,-3.082 1.764,0 2.693,1.045 2.693,3.035 v 7.488 H 5.147 V 5.17 C 5.147,1.931 3.222,0 0,0" /></g><g
           transform="translate(299.9062,49.0383)"
           id="g164"><path
             id="path166"
             style="fill:#0c1d3c;fill-opacity:1;fill-rule:nonzero;stroke:none"
             d="M 0,0 H -2.32 L -5.621,9.383 -6.308,0.045 h -2.205 l 0.976,12.375 h 3.262 l 3.239,-9.48 3.282,9.48 H 5.437 L 6.413,0.045 H 4.014 L 3.308,9.383 Z" /></g><g
           transform="translate(315.1055,56.5305)"
           id="g168"><path
             id="path170"
             style="fill:#0c1d3c;fill-opacity:1;fill-rule:nonzero;stroke:none"
             d="m 0,0 h 1.574 c 1.376,0 2.072,0.513 2.072,1.527 0,0.582 -0.202,1.36 -2.001,1.36 H 0 Z m 0,-5.43 h 1.783 c 1.611,0 2.395,0.547 2.395,1.673 0,1.187 -0.797,1.791 -2.367,1.791 l -1.811,0 z m 1.764,-2.017 h -4.07 V 4.928 h 4.044 c 2.614,0 4.17,-1.2 4.17,-3.208 0,-1.186 -0.521,-2.062 -1.544,-2.609 1.384,-0.504 2.092,-1.468 2.092,-2.868 0,-2.376 -1.664,-3.69 -4.692,-3.69" /></g><path
           id="path172"
           style="fill:#0c1d3c;fill-opacity:1;fill-rule:nonzero;stroke:none"
           d="m 330.059,49.084 h -2.425 v 12.375 h 2.425 z" /><g
           transform="translate(339.0205,54.2595)"
           id="g174"><path
             id="path176"
             style="fill:#0c1d3c;fill-opacity:1;fill-rule:nonzero;stroke:none"
             d="M 0,0 H 3.594 C 3.374,0.63 2.471,3.06 1.807,4.852 Z m 5.6,-5.409 -1.198,3.272 h -5.188 l -1.126,-3.039 h -2.37 L 0.598,7.342 H 3.161 L 7.977,-4.875 Z" /></g></g></g></g></svg>